# xmcd CD database file
#
# Track frame offsets:
#	150
#	17037
#	37907
#	54050
#	70262
#	87410
#	104237
#	121152
#	139700
#	165287
#	180812
#	197037
#	214387
#	234517
#	252075
#
# Disc length: 3560 seconds
#
# Revision: 1
# Processed by: cddbd v1.5.2PL0 Copyright (c) Steve Scherf et al.
# Submitted via: CDex 1.51
#
DISCID=c10de60f
DTITLE=Various Artist - Top Pop 92 vol. 2 - להיטים גדולים למסיבת ריקודים 
DYEAR=1992
DGENRE=90's
TTITLE0=Was (Not Was) - Shake Your Head (feat. Kim Basinger and Ozzy Osbourne)
TTITLE1=East 17 - House of Love (Pedigree Mix)
TTITLE2=Double You - We All Need Love (Radio Mix)
TTITLE3=Salt 'n' Pepa - Start Me Up (Radio Edit)
TTITLE4=Rotation - Jump! (Everybody Mix)
TTITLE5=Yello - Jungle Bill
TTITLE6=Rofo - Rofo's Theme (New Beat Edit)
TTITLE7=Blue Pearl - Mother Dawn (Seven Inch Mix)
TTITLE8=2 Unlimited - Murphy's Megamix (including: Get Ready for This, Twilight Zone, Workaholic and Magic Friend)
TTITLE9=Bananarama - Movin' On (7-Inch A)
TTITLE10=Cathy Dennis - You Lied to Me (Radio Edit)
TTITLE11=Orbital - Halcyon (Edit)
TTITLE12=Wet Wet Wet - Lip Service (Youth Remix)
TTITLE13=Jason Donovan - Mission of Love
TTITLE14=Fogata - La Manta
EXTD=YEAR: 1992
EXTT0=
EXTT1=
EXTT2=
EXTT3=
EXTT4=
EXTT5=
EXTT6=
EXTT7=
EXTT8=
EXTT9=
EXTT10=
EXTT11=
EXTT12=
EXTT13=
EXTT14=
PLAYORDER=
